<svg xmlns="http://www.w3.org/2000/svg" width="100" height="100" fill="none"><path fill="#EFEFEF" d="M88.425 23.27c0 19.213 9.953 32.408 9.953 41.666 0 9.258-5.322 28.703-47.914 28.703S1.619 67.48 1.619 57.297c0-47.686 86.806-68.055 86.806-34.027Z"/><path fill="#A4AFC1" d="M9.714 16.667c-.92 0-1.811-.303-2.55-.878a4.137 4.137 0 0 1-1.575-2.772 4.14 4.14 0 0 1 .844-3.075 4.137 4.137 0 0 1 2.773-1.575 4.122 4.122 0 0 1 3.075.844 4.126 4.126 0 0 1 1.574 2.772 4.148 4.148 0 0 1-.844 3.075 4.136 4.136 0 0 1-2.772 1.575c-.175.023-.35.034-.525.034Zm.008-5.556a1.392 1.392 0 0 0-1.378 1.561 1.39 1.39 0 0 0 1.55 1.206 1.392 1.392 0 0 0 1.206-1.55 1.392 1.392 0 0 0-1.378-1.217Z"/><path fill="#F3F3F1" d="M75.694 75.695H24.306a5.554 5.554 0 0 1-5.556-5.556V28.472h62.5V70.14a5.554 5.554 0 0 1-5.556 5.556Z"/><path fill="#EE4248" d="M81.25 28.472h-62.5v-4.166a5.554 5.554 0 0 1 5.556-5.556h51.388a5.554 5.554 0 0 1 5.556 5.556v4.166ZM65.278 81.25c8.821 0 15.972-7.151 15.972-15.972s-7.151-15.973-15.972-15.973-15.973 7.152-15.973 15.973c0 8.821 7.152 15.972 15.973 15.972Z"/><path fill="#EE4248" d="M70.139 38.194H29.86v12.5h40.306l-.028-12.5ZM30.556 18.75h-6.25a5.554 5.554 0 0 0-5.556 5.556v4.166H25v-4.166a5.554 5.554 0 0 1 5.556-5.556Z"/><path fill="#EE4248" d="M55.556 65.278c0-7.75 5.522-14.209 12.847-15.661a16.09 16.09 0 0 0-3.125-.311c-8.823 0-15.973 7.15-15.973 15.972s7.15 15.972 15.973 15.972c1.07 0 2.114-.108 3.125-.311-7.325-1.453-12.848-7.911-12.848-15.661ZM29.861 38.194h6.25v12.5h-6.25v-12.5Z"/><path fill="#D5DBE1" d="M25 70.139V28.472h-6.25V70.14a5.554 5.554 0 0 0 5.556 5.556h6.25A5.554 5.554 0 0 1 25 70.139Z"/><path fill="#000" d="M65.278 83.333c-9.956 0-18.056-8.1-18.056-18.055 0-9.956 8.1-18.056 18.056-18.056 9.955 0 18.055 8.1 18.055 18.056 0 9.955-8.1 18.055-18.055 18.055Zm0-31.944c-7.659 0-13.89 6.23-13.89 13.889 0 7.658 6.231 13.889 13.89 13.889 7.658 0 13.889-6.23 13.889-13.89 0-7.658-6.23-13.888-13.89-13.888Z"/><path fill="#000" d="M62.5 72.917c-.553 0-1.083-.22-1.472-.611l-5.556-5.556 2.947-2.947 3.981 3.98 8.256-9.433 3.136 2.744-9.723 11.112a2.09 2.09 0 0 1-1.5.71H62.5ZM45.861 52.778h-16a2.084 2.084 0 0 1-2.083-2.084v-12.5c0-1.15.933-2.083 2.083-2.083H70.14c1.15 0 2.083.933 2.083 2.083v3.278h-4.166v-1.194H31.945v8.333H45.86v4.167ZM27.917 56.917h15.972v4.166H27.917v-4.166ZM27.917 65.25h15.25v4.167h-15.25V65.25Z"/><path fill="#000" d="M43.306 77.778h-19a7.645 7.645 0 0 1-7.64-7.64V24.307a7.645 7.645 0 0 1 7.64-7.64h51.388a7.645 7.645 0 0 1 7.64 7.64V47h-4.167V24.306a3.477 3.477 0 0 0-3.473-3.473H24.305a3.477 3.477 0 0 0-3.472 3.473v45.833a3.477 3.477 0 0 0 3.473 3.472h19v4.167Z"/><path fill="#000" d="M18.75 26.389h62.5v4.167h-62.5v-4.167Z"/></svg>