<svg xmlns="http://www.w3.org/2000/svg" width="100" height="100" fill="none"><path fill="#EFEFEF" d="M23.27 88.425c19.213 0 32.408 9.953 41.666 9.953 9.258 0 28.703-5.322 28.703-47.914S67.48 1.619 57.297 1.619c-47.686 0-68.055 86.806-34.027 86.806Z"/><path fill="#A4AFC1" d="m88.8 21.34 1.965-1.964 3.928 3.928-1.964 1.965L88.8 21.34ZM77.508 10.046l1.964-1.964L83.4 12.01l-1.964 1.964-3.928-3.928ZM88.802 12.503l3.928-3.929 1.964 1.965-3.928 3.928-1.964-1.964Z"/><path fill="#EE4248" d="M54.861 72.917s.68 4.902 4.111 8.333h.056-18.056c3.472-3.472 4.111-8.333 4.111-8.333h9.778Z"/><path fill="#F3F3F1" d="M78.472 29.861a2.786 2.786 0 0 1 2.778 2.778v30.555h-62.5V32.64a2.786 2.786 0 0 1 2.778-2.778h56.944Z"/><path fill="#EE4248" d="M21.528 72.917h56.944a2.779 2.779 0 0 0 2.778-2.778v-6.944h-62.5v6.944a2.779 2.779 0 0 0 2.778 2.778ZM69.445 39.583a7.639 7.639 0 1 0 0-15.277 7.639 7.639 0 0 0 0 15.277ZM32.789 56.25c-3.158 0-5.706-2.42-5.706-5.417s2.55-5.416 5.706-5.416h.103c.608-4.092 4.3-7.223 8.775-7.223 3.55 0 6.62 1.975 8.027 4.84 3.664.191 6.556 3.069 6.556 6.597 0 3.658-3.12 6.619-6.975 6.619H32.79ZM45.083 72.917s-.639 4.86-4.11 8.333h6.25c3.471-3.472 4.11-8.333 4.11-8.333h-6.25Z"/><path fill="#EE4248" d="M25 70.139v-6.944h-6.25v6.944a2.779 2.779 0 0 0 2.778 2.778h6.25A2.779 2.779 0 0 1 25 70.139ZM68.056 31.944c0-3.102 1.858-5.76 4.514-6.955a7.58 7.58 0 0 0-3.125-.684 7.638 7.638 0 0 0-7.64 7.64c0 4.219 3.42 7.638 7.64 7.638a7.58 7.58 0 0 0 3.125-.683c-2.656-1.194-4.514-3.853-4.514-6.956ZM33.333 50.833c0-2.997 2.55-5.416 5.706-5.416h.103c.458-3.075 2.655-5.606 5.62-6.675a9.254 9.254 0 0 0-3.095-.547c-4.478 0-8.167 3.13-8.775 7.222h-.103c-3.158 0-5.706 2.42-5.706 5.416 0 2.998 2.55 5.417 5.706 5.417h6.25c-3.156 0-5.706-2.42-5.706-5.417Z"/><path fill="#D5DBE1" d="M27.778 29.861h-6.25a2.786 2.786 0 0 0-2.778 2.778v30.555H25V32.64a2.786 2.786 0 0 1 2.778-2.778Z"/><path fill="#000" d="M78.472 75H21.528a4.866 4.866 0 0 1-4.861-4.861v-37.5c0-2.68 2.18-4.861 4.86-4.861H50v4.166H21.528a.702.702 0 0 0-.695.695v37.5c0 .378.317.694.695.694h56.944a.702.702 0 0 0 .695-.694V47.222h4.166V70.14c0 2.68-2.18 4.861-4.86 4.861Z"/><path fill="#000" d="M18.75 61.111h62.5v4.167h-62.5V61.11ZM59.028 83.333H40.972a2.083 2.083 0 0 1-1.472-3.555c2.906-2.906 3.517-7.097 3.522-7.14l4.128.55c-.02.165-.408 2.962-2.064 5.979h9.783c-1.641-3-2.047-5.8-2.072-5.961l4.125-.581c.009.042.62 4.053 3.295 6.914a2.084 2.084 0 0 1-1.189 3.794ZM69.444 41.667c-5.36 0-9.722-4.361-9.722-9.723 0-5.36 4.361-9.722 9.722-9.722s9.723 4.361 9.723 9.723c0 5.36-4.362 9.722-9.723 9.722Zm0-15.278a5.561 5.561 0 0 0-5.555 5.556 5.561 5.561 0 0 0 5.555 5.555A5.561 5.561 0 0 0 75 31.945a5.561 5.561 0 0 0-5.556-5.556Z"/><path fill="#000" d="M67.361 37.5h4.167v9.722H67.36V37.5ZM67.361 16.667h4.167v9.722H67.36v-9.722ZM73.26 27.252l8.87-4.746 1.965 3.673-8.87 4.746-1.965-3.673ZM54.846 37.652l8.869-4.746 1.965 3.673-8.87 4.746-1.964-3.673ZM54.852 26.218l1.965-3.673 8.869 4.746-1.965 3.673-8.87-4.746ZM73.277 36.608l1.965-3.672 8.87 4.746-1.966 3.672-8.87-4.746ZM49.278 58.333h-16.5c-4.29 0-7.778-3.364-7.778-7.5 0-3.62 2.672-6.647 6.211-7.35 1.403-4.3 5.63-7.372 10.456-7.372 3.072 0 6.014 1.239 8.066 3.4l-3.022 2.87c-1.27-1.337-3.108-2.103-5.044-2.103-3.367 0-6.253 2.341-6.717 5.447a2.088 2.088 0 0 1-2.061 1.775c-2.103 0-3.722 1.494-3.722 3.333 0 1.84 1.62 3.334 3.61 3.334h16.5c2.698 0 4.89-2.03 4.89-4.528 0-.375-.04-.678-.117-.961l4.008-1.134c.186.653.275 1.34.275 2.095 0 4.794-4.06 8.694-9.055 8.694Z"/></svg>