<svg xmlns="http://www.w3.org/2000/svg" width="100" height="100" fill="none"><path fill="#EFEFEF" d="M74.95 10.872c-19.211.359-32.589-9.347-41.847-9.172-9.259.175-28.6 5.858-27.803 48.444C6.097 92.731 32.367 98.49 42.55 98.3c47.678-.892 66.419-88.064 32.4-87.428Z"/><path fill="#A4AFC1" d="m18.35 9.47 3.927-3.929 1.965 1.965-3.929 3.928L18.35 9.47ZM7.055 20.762l3.93-3.93 1.964 1.964-3.93 3.93-1.964-1.964ZM7.058 7.016 9.022 5.05l3.93 3.93-1.964 1.965-3.93-3.93ZM92.303 42.897a4.172 4.172 0 0 1-4.167-4.166 4.172 4.172 0 0 1 4.167-4.167 4.172 4.172 0 0 1 4.166 4.167 4.172 4.172 0 0 1-4.166 4.166Zm0-5.555c-.764 0-1.39.622-1.39 1.389 0 .766.626 1.389 1.39 1.389.764 0 1.389-.623 1.389-1.39 0-.766-.625-1.388-1.39-1.388Z"/><path fill="#EE4248" d="M78.472 31.25H21.528a2.779 2.779 0 0 1-2.778-2.778v-6.944a2.779 2.779 0 0 1 2.778-2.778h56.944a2.779 2.779 0 0 1 2.778 2.778v6.944a2.779 2.779 0 0 1-2.778 2.778ZM75 56.25A6.249 6.249 0 0 1 68.75 50 6.249 6.249 0 0 1 75 43.75 6.249 6.249 0 0 1 81.25 50 6.249 6.249 0 0 1 75 56.25ZM75 81.25A6.249 6.249 0 0 1 68.75 75 6.249 6.249 0 0 1 75 68.75 6.249 6.249 0 0 1 81.25 75 6.249 6.249 0 0 1 75 81.25Z"/><path fill="#D5DBE1" d="M25 28.472v-6.944a2.779 2.779 0 0 1 2.778-2.778h-6.25a2.779 2.779 0 0 0-2.778 2.778v6.944a2.779 2.779 0 0 0 2.778 2.778h6.25A2.779 2.779 0 0 1 25 28.472Z"/><path fill="#EE4248" d="M75 50c0-2.308 1.264-4.3 3.125-5.383-.922-.536-1.98-.867-3.125-.867A6.249 6.249 0 0 0 68.75 50 6.249 6.249 0 0 0 75 56.25c1.144 0 2.203-.33 3.125-.867C76.264 54.3 75 52.308 75 50ZM75 75c0-2.308 1.264-4.3 3.125-5.383-.922-.536-1.98-.867-3.125-.867A6.249 6.249 0 0 0 68.75 75 6.249 6.249 0 0 0 75 81.25c1.144 0 2.203-.33 3.125-.867C76.264 79.3 75 77.308 75 75Z"/><path fill="#000" d="M78.472 33.333H21.528a4.866 4.866 0 0 1-4.861-4.86v-6.945c0-2.68 2.18-4.861 4.86-4.861h56.945c2.68 0 4.861 2.18 4.861 4.86v6.945c0 2.68-2.18 4.861-4.86 4.861Zm-56.944-12.5a.695.695 0 0 0-.695.695v6.944c0 .384.312.695.695.695h56.944a.695.695 0 0 0 .695-.695v-6.944a.695.695 0 0 0-.695-.695H21.528ZM18.75 44.444h40.278v4.167H18.75v-4.166ZM18.75 52.778h40.278v4.166H18.75v-4.166ZM18.75 69.444h40.278v4.167H18.75v-4.167ZM18.75 77.778h40.278v4.166H18.75v-4.166ZM75 58.333c-4.594 0-8.333-3.739-8.333-8.333s3.739-8.333 8.333-8.333 8.333 3.739 8.333 8.333-3.739 8.333-8.333 8.333Zm0-12.5A4.172 4.172 0 0 0 70.833 50 4.172 4.172 0 0 0 75 54.167 4.172 4.172 0 0 0 79.167 50 4.172 4.172 0 0 0 75 45.833ZM75 83.333c-4.594 0-8.333-3.739-8.333-8.333s3.739-8.333 8.333-8.333 8.333 3.739 8.333 8.333-3.739 8.333-8.333 8.333Zm0-12.5A4.172 4.172 0 0 0 70.833 75 4.172 4.172 0 0 0 75 79.167 4.172 4.172 0 0 0 79.167 75 4.172 4.172 0 0 0 75 70.833Z"/></svg>