<svg xmlns="http://www.w3.org/2000/svg" width="119" height="56" fill="none"><path fill="#85171A" d="M2.578 44V9.875H13.57c3.016 0 5.727.688 8.133 2.063 2.406 1.359 4.281 3.289 5.625 5.789 1.36 2.484 2.047 5.273 2.063 8.367v1.57c0 3.125-.664 5.93-1.993 8.414a14.472 14.472 0 0 1-5.578 5.813c-2.39 1.39-5.062 2.093-8.015 2.109H2.578Zm8.227-27.773v21.445h2.86c2.358 0 4.17-.836 5.437-2.508 1.265-1.687 1.898-4.187 1.898-7.5v-1.477c0-3.296-.633-5.78-1.898-7.453-1.266-1.672-3.11-2.507-5.532-2.507h-2.765Z"/><path fill="#DC2025" d="M48.81 34.93c0-1.203-.429-2.14-1.288-2.813-.844-.672-2.336-1.367-4.477-2.086-2.14-.718-3.89-1.414-5.25-2.086-4.422-2.172-6.633-5.156-6.633-8.953 0-1.89.547-3.555 1.641-4.992 1.11-1.453 2.672-2.578 4.688-3.375 2.015-.813 4.28-1.219 6.797-1.219 2.453 0 4.648.438 6.585 1.313 1.954.875 3.47 2.125 4.547 3.75 1.078 1.61 1.617 3.453 1.617 5.531h-8.203c0-1.39-.43-2.469-1.289-3.234-.843-.766-1.992-1.149-3.445-1.149-1.469 0-2.633.328-3.492.985-.844.64-1.266 1.46-1.266 2.46 0 .875.469 1.672 1.406 2.391.938.703 2.586 1.438 4.946 2.203 2.36.75 4.297 1.563 5.812 2.438 3.688 2.125 5.532 5.054 5.532 8.789 0 2.984-1.125 5.328-3.375 7.031-2.25 1.703-5.336 2.555-9.258 2.555-2.766 0-5.274-.492-7.524-1.477-2.234-1-3.922-2.36-5.062-4.078-1.125-1.734-1.688-3.727-1.688-5.977h8.25c0 1.829.469 3.18 1.407 4.055.953.86 2.492 1.29 4.617 1.29 1.36 0 2.43-.29 3.21-.868.797-.594 1.196-1.422 1.196-2.484Z"/><path fill="#FEBA08" d="M67.622 44h-8.203V9.875h8.203V44Z"/><path fill="#000" fill-opacity=".6" d="M71.723 18v-7.11h2.1c.628 0 1.184.14 1.67.42.488.28.865.678 1.132 1.192.267.514.4 1.103.4 1.768v.356c0 .674-.135 1.266-.405 1.777a2.81 2.81 0 0 1-1.147 1.182c-.495.277-1.063.415-1.704.415h-2.046Zm1.235-6.113v5.127h.806c.648 0 1.144-.202 1.489-.606.348-.407.526-.99.532-1.748v-.395c0-.772-.167-1.361-.503-1.768-.335-.407-.822-.61-1.46-.61h-.864Zm11.524 4.355 1.094-5.351H86.8L85.161 18h-1.182l-1.352-5.19L81.245 18h-1.187l-1.64-7.11h1.225l1.104 5.342 1.357-5.341h1.035l1.343 5.351ZM89.658 18h-1.23v-7.11h1.23V18Zm2.169 0v-7.11h2.1c.628 0 1.184.14 1.67.42.488.28.865.678 1.132 1.192.267.514.4 1.103.4 1.768v.356c0 .674-.134 1.266-.405 1.777a2.81 2.81 0 0 1-1.147 1.182c-.495.277-1.063.415-1.704.415h-2.046Zm1.235-6.113v5.127h.806c.648 0 1.144-.202 1.49-.606.347-.407.525-.99.531-1.748v-.395c0-.772-.167-1.361-.502-1.768-.336-.407-.822-.61-1.46-.61h-.865Zm9.82 4.458h-2.754L99.552 18h-1.284l2.686-7.11h1.108l2.69 7.11h-1.289l-.581-1.655Zm-2.407-.996h2.061l-1.031-2.95-1.03 2.95Zm9.454.82c0-.313-.111-.553-.332-.723-.218-.169-.614-.34-1.187-.512-.573-.173-1.028-.365-1.367-.577-.648-.406-.972-.937-.972-1.591 0-.573.233-1.045.699-1.416.468-.371 1.075-.557 1.821-.557.495 0 .936.091 1.323.273.387.183.692.443.913.782.222.335.332.708.332 1.118h-1.23c0-.371-.117-.661-.352-.87-.231-.21-.563-.317-.996-.317-.404 0-.718.087-.942.26-.222.172-.332.412-.332.722 0 .26.12.478.361.654.241.173.638.342 1.191.508.554.163.998.35 1.333.561.336.209.581.45.738.723.156.27.234.588.234.952 0 .593-.228 1.065-.684 1.416-.452.349-1.067.523-1.845.523-.515 0-.988-.095-1.421-.284-.43-.192-.765-.455-1.006-.79a1.971 1.971 0 0 1-.356-1.172h1.235c0 .403.133.716.4.937.267.221.65.332 1.148.332.429 0 .752-.086.967-.259a.847.847 0 0 0 .327-.693Zm6.949.176h-2.754L113.547 18h-1.284l2.686-7.11h1.108l2.691 7.11h-1.289l-.581-1.655Zm-2.408-.996h2.061l-1.03-2.95-1.031 2.95Z"/><path fill="#263238" fill-opacity=".8" d="M75.439 28.169c0-.313-.111-.553-.333-.723-.218-.169-.613-.34-1.186-.512-.573-.173-1.029-.365-1.367-.577-.648-.406-.972-.937-.972-1.591 0-.573.233-1.045.698-1.416.469-.372 1.076-.557 1.822-.557.494 0 .936.091 1.323.273.387.183.692.443.913.782.221.335.332.708.332 1.118h-1.23c0-.371-.118-.661-.352-.87-.231-.21-.563-.317-.996-.317-.404 0-.718.087-.943.26-.22.172-.332.412-.332.722 0 .26.12.478.362.654.24.173.638.342 1.191.508.553.163.998.35 1.333.561.335.209.581.45.737.723.157.27.235.588.235.952 0 .593-.228 1.065-.684 1.416-.452.349-1.067.523-1.846.523-.514 0-.987-.095-1.42-.284-.43-.192-.765-.455-1.006-.79a1.974 1.974 0 0 1-.357-1.172h1.236c0 .403.133.716.4.937.267.221.65.332 1.147.332.43 0 .752-.086.967-.259a.847.847 0 0 0 .328-.693Zm6.448.176h-2.754L78.557 30h-1.284l2.686-7.11h1.108l2.69 7.11h-1.289l-.58-1.655Zm-2.407-.996h2.06l-1.03-2.95-1.03 2.95Zm6.84-4.458 2.05 5.449 2.046-5.45h1.597V30h-1.23v-2.344l.121-3.134-2.1 5.478h-.883l-2.095-5.474.122 3.13V30h-1.23v-7.11h1.602Zm11.024 5.278c0-.313-.111-.553-.332-.723-.219-.169-.614-.34-1.187-.512-.573-.173-1.029-.365-1.367-.577-.648-.406-.972-.937-.972-1.591 0-.573.233-1.045.698-1.416.47-.372 1.076-.557 1.822-.557.495 0 .936.091 1.323.273.387.183.692.443.913.782.221.335.332.708.332 1.118h-1.23c0-.371-.118-.661-.352-.87-.231-.21-.563-.317-.996-.317-.404 0-.718.087-.942.26-.222.172-.332.412-.332.722 0 .26.12.478.36.654.242.173.639.342 1.192.508.554.163.998.35 1.333.561.335.209.581.45.737.723.157.27.235.588.235.952 0 .593-.228 1.065-.684 1.416-.452.349-1.067.523-1.845.523-.515 0-.988-.095-1.421-.284-.43-.192-.765-.455-1.006-.79a1.974 1.974 0 0 1-.357-1.172h1.236c0 .403.133.716.4.937.267.221.65.332 1.148.332.43 0 .752-.086.966-.259a.847.847 0 0 0 .328-.693Zm6.448.176h-2.754L100.462 30h-1.284l2.686-7.11h1.108l2.691 7.11h-1.29l-.581-1.655Zm-2.407-.996h2.061l-1.031-2.95-1.03 2.95Zm7.85-.088h-1.377V30h-1.235v-7.11h2.5c.82 0 1.453.184 1.899.552.446.368.669.9.669 1.597 0 .475-.115.874-.346 1.196a2.183 2.183 0 0 1-.957.738l1.596 2.963V30h-1.323l-1.426-2.74Zm-1.377-.991h1.27c.417 0 .742-.105.976-.313.235-.212.352-.5.352-.864 0-.381-.109-.676-.327-.884-.215-.208-.537-.316-.967-.322h-1.304v2.383Zm9.135 2.075h-2.754L113.663 30h-1.284l2.685-7.11h1.108l2.691 7.11h-1.289l-.581-1.655Zm-2.407-.996h2.06l-1.03-2.95-1.03 2.95Z"/><path fill="#263238" d="M73.026 43h-1.23v-7.11h1.23V43Zm6.659 0h-1.236l-3.169-5.044V43h-1.235v-7.11h1.235l3.179 5.064v-5.063h1.226V43Zm.96 0v-7.11h2.1c.627 0 1.184.14 1.67.42.487.28.865.678 1.132 1.192.267.514.4 1.103.4 1.767v.357c0 .674-.135 1.266-.405 1.777a2.81 2.81 0 0 1-1.148 1.182c-.494.277-1.062.415-1.704.415h-2.046Zm1.235-6.113v5.127h.806c.647 0 1.144-.202 1.489-.606.348-.407.526-.99.532-1.748v-.395c0-.772-.168-1.361-.503-1.768-.335-.407-.822-.61-1.46-.61h-.864Zm10.472 2.744c0 .697-.12 1.309-.362 1.836-.24.524-.586.928-1.035 1.21-.446.28-.96.42-1.543.42-.576 0-1.09-.14-1.543-.42a2.811 2.811 0 0 1-1.045-1.205c-.244-.521-.368-1.122-.37-1.802v-.4c0-.694.121-1.306.365-1.836.248-.531.594-.936 1.04-1.216.45-.283.964-.425 1.543-.425.58 0 1.093.14 1.538.42.45.277.796.677 1.04 1.201.245.52.368 1.128.372 1.821v.396Zm-1.236-.371c0-.788-.15-1.392-.449-1.812-.296-.42-.718-.63-1.265-.63-.534 0-.952.21-1.255.63-.299.417-.452 1.008-.459 1.773v.41c0 .781.152 1.385.455 1.811.306.427.729.64 1.27.64.546 0 .966-.208 1.259-.625.296-.417.444-1.025.444-1.826v-.371ZM98.722 43h-1.236l-3.169-5.044V43h-1.235v-7.11h1.235l3.18 5.064v-5.063h1.225V43Zm5.115-3.174h-2.92v2.188h3.413V43h-4.648v-7.11h4.614v.997h-3.379v1.963h2.92v.976Zm4.715 1.343c0-.313-.111-.553-.332-.723-.218-.169-.614-.34-1.187-.512-.573-.173-1.028-.365-1.367-.577-.648-.407-.972-.937-.972-1.591 0-.573.233-1.045.699-1.416.468-.372 1.075-.557 1.821-.557.495 0 .936.091 1.323.273.387.183.692.443.913.782.222.335.332.708.332 1.118h-1.23c0-.371-.117-.661-.352-.87-.231-.21-.563-.317-.996-.317-.404 0-.718.087-.942.26-.222.172-.332.413-.332.722 0 .26.12.478.361.654.241.173.638.342 1.191.508.554.163.998.35 1.333.561.336.209.581.45.738.723.156.27.234.588.234.952 0 .593-.228 1.065-.683 1.416-.453.348-1.068.523-1.846.523-.515 0-.988-.095-1.421-.283-.43-.193-.765-.456-1.006-.792a1.971 1.971 0 0 1-.356-1.171h1.235c0 .403.133.716.4.937.267.221.65.332 1.148.332.43 0 .752-.086.967-.259a.847.847 0 0 0 .327-.693ZM111.675 43h-1.231v-7.11h1.231V43Zm5.086-1.655h-2.754L113.431 43h-1.285l2.686-7.11h1.108l2.691 7.11h-1.289l-.581-1.655Zm-2.407-.996h2.06l-1.03-2.95-1.03 2.95Z"/></svg>